<svg xmlns="http://www.w3.org/2000/svg" width="302" height="186" viewBox="0 0 302 186">
    <g fill="none">
        <path fill="#EDF6FC" d="M106.51 10.17C116.07 1.66 131.08-.08 144.74.6c42.9 2.13 81.63 22.84 115.13 46.27 12.13 8.48 24.07 17.62 31.94 29.31 16 23.77 11.28 56.71-11 76.3-7.58 6.66-16.77 11.78-26.21 16.3-16.77 8.06-34.88 14.52-53.92 16.37-13.57 1.31-27.32.24-40.82-1.59-37.71-5.12-74.73-16.43-105.77-35.78-13.6-8.49-26.43-19-32-32.76-5.57-13.76-2-31.14 11.88-39.28 5.74-3.36 12.62-4.88 19.34-6.31 9.91-2.09 20-4.16 28.9-8.43 9.24-4.4 20.16-12.92 18.33-22.68-2-10.45-3.54-19.64 5.97-28.15z"/>
        <circle cx="59.43" cy="41.22" r="10.31" fill="#F37C2B"/>
        <circle cx="37.83" cy="16.67" r="6.38" fill="#F37C2B"/>
        <circle cx="4.45" cy="30.91" r="3.93" fill="#F37C2B"/>
        <path fill="#55953C" d="M199.47 70.66c-.62-.06-.77-.08-.36-.06l.36.06z"/>
        <path fill="#FFF" d="M217.1 135.62c-1.74 10.35-8.64 17.46-13.82 22.65h-65.37c-2.22-.09-4.114-1.634-4.65-3.79l-2-6.7-2.2-7.48-2.42-8.25-2.2-7.48-2.44-8.26-2.2-7.48-3.14-10.67c-1.06-3.59 1.3-7.3 4.65-7.3H203c-1.45 13.77 17.44 24.98 14.1 44.76z"/>
        <path fill="#002F5B" d="M223.94 140.3L222.5 147.77 131.29 147.77 129.09 140.3zM226.97 124.56L225.53 132.05 126.67 132.05 124.47 124.56zM230 108.82L228.56 116.31 122.04 116.31 119.84 108.82z"/>
        <path fill="#F37C2B" d="M188.91 69.4c-5.892-5.89-14.755-7.647-22.448-4.45-7.694 3.198-12.7 10.718-12.682 19.05v14.16h5.55v-14.4c0-7.66 6.21-13.87 13.87-13.87h2.32c3.679 0 7.206 1.461 9.808 4.062 2.6 2.602 4.062 6.13 4.062 9.808v14.35h5.55V84c.021-5.477-2.15-10.734-6.03-14.6z"/>
        <circle cx="156.76" cy="98.11" r="4.64" fill="#002F5B"/>
        <circle cx="191.86" cy="98.11" r="4.64" fill="#002F5B"/>
        <path fill="#E4EAF4" d="M232.16 97.59L230 108.83l-1.44 7.48-1.56 8.26-1.44 7.48-1.59 8.25-1.44 7.48-1.18 6.13c-.347 2.413-2.355 4.241-4.79 4.36h-13.28c5.18-5.19 12.08-12.3 13.82-22.65 3.34-19.78-15.55-31-14.13-44.76h24.41c3.12 0 5.45 3.27 4.78 6.73z"/>
    </g>
</svg>
