<svg width="235" height="183" viewBox="0 0 235 183" fill="none" xmlns="http://www.w3.org/2000/svg">
    <path d="M224.128 51.512C212.628 28.5129 186.364 -3.22484 116.021 1.53266C45.6777 6.29016 11.0949 47.6271 1.68356 99.6663C-4.42557 133.446 23.2452 163.273 68.1653 170.46C113.085 177.648 174.16 157.474 210.472 122.306C226.276 107 235.627 74.5111 224.128 51.512Z" fill="#ECF0F8"/>
    <path d="M53.6812 16.1736H90.4301C90.4301 16.1736 90.5916 10.3584 86.6341 10.3584C84.4534 10.3584 82.7573 11.5699 82.7573 11.5699C82.7573 11.5699 81.6265 7.61233 77.4267 6.96619C73.2268 6.32006 72.0961 8.01616 72.0961 8.01616C72.0961 8.01616 69.1077 0.666387 63.2925 1.07022C54.7312 1.63559 54.6504 10.6815 54.6504 10.6815C54.6504 10.6815 50.289 11.3276 51.0159 16.2544H53.6812V16.1736Z" stroke="#CED9ED" stroke-width="0.794583" stroke-miterlimit="10"/>
    <path d="M107.667 9.80069C109.733 8.84818 110.923 7.02522 110.326 5.729C109.728 4.43278 107.569 4.15415 105.503 5.10666C103.437 6.05916 102.247 7.88211 102.845 9.17833C103.442 10.4746 105.602 10.7532 107.667 9.80069Z" stroke="#CED9ED" stroke-width="0.794583" stroke-miterlimit="10"/>
    <mask id="mask0" mask-type="alpha" maskUnits="userSpaceOnUse" x="0" y="1" width="234" height="170">
        <path d="M227.927 51.2741C216.232 28.4044 189.521 -3.15492 117.98 1.57582C46.4401 6.30657 11.2688 47.4111 1.69727 99.1576C-4.51583 132.748 23.6259 162.407 69.3105 169.554C114.995 176.7 177.109 156.641 214.039 121.67C230.112 106.45 239.623 74.1439 227.927 51.2741Z" fill="#F7F7FA"/>
    </mask>
    <g mask="url(#mask0)">
        <path d="M46.3137 26.7688C21.5392 27.5243 6.93674 40.9339 2.73232 47.5443L-31.7821 130.051L8.46678 185.471L96.2069 214.274L213.767 168.473L248.174 65.4871C235.749 64.5427 209.179 58.7822 202.297 43.2949C193.695 23.9357 162.155 9.77057 138.643 14.0201C115.131 18.2697 113.41 38.1009 96.2061 38.1009C79.0022 38.1009 77.2818 25.8244 46.3137 26.7688Z" fill="#CED9ED"/>
    </g>
    <path d="M174.379 143.881C175.67 144.641 177.037 146.843 177.644 149.577C178.555 153.221 177.948 156.563 176.277 157.018C174.607 157.398 172.557 154.816 171.645 151.095C171.418 150.184 171.266 149.349 171.266 148.589C173.164 148.286 175.062 148.058 176.961 147.982C175.974 146.387 175.062 145.172 174.379 143.881Z" fill="#F4B73B"/>
    <path d="M135.27 27.2411C135.498 28.3042 135.726 33.8475 133.524 32.3288C131.853 31.1898 131.018 28.6079 131.094 26.6336C131.094 25.8742 131.321 25.1149 131.929 24.7352C132.612 24.2796 133.6 24.5074 134.207 25.0389C134.815 25.6464 135.118 26.4817 135.27 27.2411Z" fill="#B9C8E4"/>
    <path d="M173.013 143.654C173.469 143.578 173.924 143.653 174.38 143.957C175.063 145.172 175.975 146.463 176.886 147.906C174.988 148.058 173.089 148.286 171.191 148.513C171.115 145.932 171.722 143.957 173.013 143.654Z" fill="#F4B73B"/>
    <path d="M75.2786 161.195C75.2786 161.119 75.2786 161.119 75.2786 161.195C77.0252 160.36 78.7717 159.6 80.4423 158.841C80.822 159.525 81.1257 160.36 81.3535 161.195C81.4295 161.423 81.4295 161.575 81.5054 161.727C79.4551 161.423 77.3289 161.271 75.2786 161.195Z" fill="#F4B73B"/>
    <path d="M75.279 161.119C74.8234 158.385 75.4309 156.183 76.7218 155.804C77.9368 155.424 79.3796 156.715 80.4427 158.841C78.6962 159.524 77.0256 160.284 75.279 161.119Z" fill="#F4B73B"/>
    <path d="M182.58 76.3725C179.163 94.2179 178.1 111.987 177.568 129.985C177.492 132.87 177.416 135.68 177.34 138.565C175.898 138.565 174.379 138.641 172.936 138.717C151.598 139.856 130.411 148.21 114.464 162.486C114.312 162.41 114.084 162.258 113.932 162.182L114.008 162.03C110.439 144.413 103.377 127.555 93.4292 112.595C93.5052 112.595 93.5811 112.671 93.733 112.671C105.503 107.355 117.198 102.267 128.892 97.4072C146.51 90.0413 164.203 83.055 182.58 76.3725Z" fill="#F4B73B"/>
    <path d="M182.58 76.3727C164.203 83.0552 146.509 90.0415 128.892 97.4834L128.816 97.3315C130.866 86.3965 132.157 75.3855 132.764 64.2986C134.967 64.7542 137.169 65.2098 139.295 65.7414C151.597 68.5511 163.291 71.9683 175.593 74.8539C177.871 75.3855 180.226 75.8411 182.58 76.3727Z" fill="#EFB348"/>
    <path d="M110.818 174.408C112.717 173.269 114.691 172.13 116.589 170.991C116.969 171.751 117.197 172.51 117.5 173.345C118.715 177.598 118.184 181.471 116.21 182.078C114.235 182.61 111.653 179.648 110.438 175.396C110.287 174.864 110.135 174.333 110.059 173.801C110.362 174.029 110.59 174.181 110.818 174.408Z" fill="#F4B73B"/>
    <path d="M233.609 78.8786C234.824 80.3214 234.368 82.5995 233.305 84.1941C231.786 86.3963 229.356 87.7631 226.85 88.5225C224.344 89.2819 221.611 89.4337 219.029 89.5097C219.257 89.5097 220.092 85.7888 220.32 85.4091C220.775 84.346 221.459 83.2829 222.218 82.3717C223.737 80.3973 225.863 78.8786 228.217 78.0433C229.964 77.3599 232.394 77.3599 233.609 78.8786Z" fill="#B9C8E4"/>
    <path d="M116.666 170.991C114.691 172.13 112.793 173.269 110.894 174.408C110.667 174.256 110.439 174.029 110.135 173.877C109.452 170.308 110.059 167.27 111.806 166.739C113.324 166.283 115.299 168.03 116.666 170.991Z" fill="#F4B73B"/>
    <path d="M93.4285 153.146C88.1888 151.399 82.8731 149.957 77.3297 148.893C76.6462 146.539 75.9628 144.109 75.1275 141.831C69.4321 125.049 60.1677 109.482 48.2455 96.4964L48.7011 96.0407C63.5849 101.584 78.5447 107.128 93.4285 112.671C103.376 127.631 110.439 144.489 114.008 162.107L113.932 162.258C107.325 158.462 100.491 155.5 93.4285 153.146Z" fill="#FFDC50"/>
    <path d="M165.985 91.1801V133.734M154.614 98.1502V136.303M68.038 111.357C72.0733 117.226 80.5842 132.047 82.3451 144.373M82.3451 115.759C85.7687 122.485 92.6159 137.623 92.6159 144.373" stroke="#FFCD68"/>
    <path d="M93.4291 112.595C78.5453 107.051 63.5856 101.508 48.7018 95.9645C60.0165 91.712 71.2553 87.4595 82.57 83.207C89.5563 80.5491 96.6185 77.8913 103.605 75.2335C113.325 71.5885 122.969 67.9435 132.765 64.2225C132.157 75.3094 130.866 86.3963 128.816 97.2554L128.892 97.4073C117.198 102.343 105.579 107.355 93.7329 112.671C93.581 112.671 93.5051 112.671 93.4291 112.595Z" fill="#FFC74F"/>
    <path d="M81.5063 161.726C82.3416 164.916 81.8101 167.801 80.2913 168.257C78.6967 168.713 76.6464 166.283 75.5833 162.865C75.4314 162.258 75.2796 161.726 75.2036 161.195C77.3298 161.271 79.456 161.423 81.5063 161.726Z" fill="#F4B73B"/>
    <path d="M175.593 74.778C163.291 71.8924 151.596 68.5511 139.295 65.6655C137.168 65.1339 134.966 64.6783 132.764 64.2227C123.044 67.8677 113.324 71.5127 103.604 75.2337C102.693 73.1074 102.161 70.8293 102.009 68.4752C101.781 64.2986 102.844 60.1221 104.439 56.2492C105.73 52.9839 107.325 49.7945 109.299 46.8329C111.425 43.4917 114.007 40.3782 117.273 38.252C120.614 36.1257 124.866 35.2145 128.587 36.4295C132.308 37.6445 135.346 41.3654 135.042 45.3142C135.953 40.606 137.852 36.4295 141.041 32.7844C144.155 29.1394 148.179 26.2538 152.508 24.2035C155.393 22.8366 158.507 21.8494 161.696 21.7735C164.886 21.6975 168.151 22.7607 170.429 24.9629C172.1 26.6335 173.163 28.8357 173.618 31.1138C174.074 33.392 173.998 35.822 173.618 38.1001C176.2 35.4423 179.542 33.6198 183.187 32.9363C185.692 32.4807 188.654 32.7085 190.401 34.6829C192.071 36.5813 191.995 39.391 191.312 41.7451C194.577 38.0242 199.133 34.9867 203.918 33.8476C208.626 32.7085 213.714 33.0123 218.042 35.1385C222.37 37.2648 225.864 41.1376 227.079 45.8457C228.445 51.1614 226.775 56.7808 224.041 61.4889C220.32 67.9436 214.625 73.1074 207.866 76.2208C209.385 75.6893 210.676 75.0818 212.195 75.0058C213.789 75.0058 215.384 75.3855 216.599 76.4487C217.89 77.5877 218.498 79.4102 218.422 81.1568C218.346 82.9034 217.738 84.574 216.903 86.0928C215.08 89.5859 212.195 92.4715 208.853 94.37C211.132 93.155 213.486 91.94 215.992 91.4843C218.725 90.9528 221.763 91.3325 224.041 92.9271C226.091 94.37 227.306 96.8 227.838 99.23C228.977 104.622 226.851 110.393 223.054 114.493C220.092 117.683 216.144 119.885 211.967 121.252C210.676 121.252 209.689 121.48 208.626 122.163C209.765 121.935 210.904 121.632 211.967 121.252C212.043 121.252 212.043 121.252 212.119 121.252C212.878 121.252 213.638 121.48 214.169 122.011C214.625 122.467 214.701 123.226 214.625 123.834C214.473 124.441 214.169 125.049 213.789 125.504C212.65 126.871 210.828 127.707 209.005 127.707C198.602 127.479 187.895 127.251 177.795 129.833H177.491C178.023 111.76 179.086 94.0662 182.503 76.2208C180.225 75.8412 177.871 75.3855 175.593 74.778Z" fill="#B9C8E4"/>
    <path d="M94.9107 112.306L182.551 76.4415" stroke="#262626"/>
    <path d="M95.1265 112.436L48.5268 96.4499" stroke="black"/>
    <path d="M172.934 138.718C172.934 140.617 173.466 142.211 174.377 143.882C175.06 145.097 175.972 146.388 176.883 147.831C174.984 147.982 173.086 148.21 171.187 148.438C161.24 149.881 151.671 153.298 142.407 157.323C133.522 161.272 125.017 165.98 116.588 170.916C114.614 172.055 112.715 173.194 110.817 174.333C110.589 174.181 110.361 173.953 110.058 173.801C101.78 167.574 91.7566 163.246 81.429 161.727C79.3787 161.423 77.2524 161.196 75.2021 161.12C75.1262 161.12 75.1262 161.12 75.0503 161.12C75.1262 161.12 75.1262 161.044 75.2021 161.044C76.9487 160.208 78.6953 159.525 80.3659 158.766C84.6943 156.867 88.9469 155.121 93.3513 153.146" stroke="#262626" stroke-width="0.794583" stroke-miterlimit="10" stroke-linejoin="round"/>
    <path d="M139.297 65.7412C141.499 61.3369 142.411 56.5529 144.992 52.3764C151.295 51.5411 153.497 50.6299 159.648 49.1112" stroke="#F7F7FA" stroke-width="2" stroke-miterlimit="10"/>
    <path d="M175.592 74.778C177.794 70.3737 181.135 65.7416 183.717 61.4892C190.02 60.6539 192.534 59.6496 198.946 56.7816" stroke="#F7F7FA" stroke-width="2" stroke-miterlimit="10"/>
    <path d="M46.7283 81.2328C47.108 80.9291 47.5636 80.7013 48.0952 80.6253C48.7786 80.4735 49.538 80.6253 50.0695 81.081C50.9048 81.8403 50.9808 83.2072 50.6011 84.2703C50.2214 85.3334 49.462 86.3205 48.3989 86.7002C47.3358 87.0799 45.969 86.7762 45.4374 85.789C45.1337 85.2574 45.0577 84.6499 45.1337 84.0425C45.2096 82.9034 45.8171 81.8403 46.7283 81.2328Z" fill="#6B7690"/>
    <path d="M48.0944 80.6252C47.6387 80.7012 47.1831 80.929 46.7275 81.2328C45.8162 81.8403 45.2087 82.9034 45.1328 84.0424C45.0568 84.65 45.1328 85.2575 45.4365 85.789C45.9681 86.7762 47.335 87.08 48.3981 86.7003C49.4612 86.3206 50.2206 85.3334 50.6003 84.2703C50.98 83.2071 50.98 81.8403 50.0687 81.0809C49.5372 80.6253 48.7778 80.4734 48.0944 80.6252ZM69.4329 67.1843C74.141 64.9821 78.8492 62.7799 83.5573 60.5777L83.861 60.6536C82.0385 68.0196 81.5829 75.6893 82.5701 83.2071C71.2554 87.5356 60.0166 91.7881 48.7019 96.0406L48.2462 96.4962C60.2444 109.558 69.4329 125.125 75.1282 141.831C64.8766 145.78 54.3972 151.703 45.5884 158.31C45.5125 158.31 45.5125 158.234 45.4365 158.234C46.5756 133.174 41.7915 107.963 31.6918 85.0296C36.5518 82.7515 41.4878 80.4734 46.3478 78.1193C54.0175 74.4743 61.6872 70.8293 69.4329 67.1843ZM70.7238 73.7149C69.281 74.1705 68.1419 75.5374 68.066 77.0562C67.99 77.6637 68.066 78.2712 68.3697 78.8027C68.9013 79.7899 70.2682 80.0937 71.3313 79.714C72.3944 79.3343 73.1538 78.3471 73.5335 77.284C73.9132 76.2209 73.9132 74.854 73.0019 74.0946C72.4704 73.639 71.711 73.4871 71.0276 73.639C70.8757 73.639 70.7997 73.7149 70.7238 73.7149Z" fill="#8C93A3"/>
    <path d="M71.0298 73.6389C71.7132 73.487 72.4726 73.6389 73.0041 74.0945C73.8394 74.8539 73.9154 76.2207 73.5357 77.2838C73.156 78.3469 72.3966 79.3341 71.3335 79.7138C70.2704 80.0935 68.9036 79.7897 68.372 78.8025C68.0683 78.271 67.9923 77.6635 68.0683 77.056C68.2202 75.5373 69.2833 74.1704 70.726 73.7148C70.802 73.7148 70.8779 73.6389 71.0298 73.6389Z" fill="#6B7690"/>
    <path d="M7.23938 78.6508C6.85969 77.7396 6.63187 77.1321 6.63187 76.6764C15.2128 76.6005 24.6291 79.7899 31.1598 85.1814C31.3116 85.1055 31.4635 85.0296 31.6154 84.9536C41.7911 107.887 46.4992 133.098 45.3601 158.158C37.0829 153.677 28.9576 148.969 20.1488 145.552C20.6804 132.946 19.5413 120.265 16.8835 107.963C15.1369 99.9893 12.7828 92.0918 9.74532 84.498C8.91001 82.5236 8.07469 80.5493 7.23938 78.6508Z" fill="#BCC0CA"/>
    <path d="M83.5564 60.5774C78.8483 62.7796 74.1403 64.9817 69.4323 67.1839C68.597 63.463 67.5338 59.8181 66.2429 56.2491C65.8632 55.186 65.4836 54.1988 65.028 53.1357C71.4825 55.5657 77.2537 57.6919 83.5564 60.5774Z" fill="#6B7690"/>
    <path d="M69.4307 67.1838C61.6852 70.8288 54.0157 74.3978 46.2702 78.0427C45.359 71.6641 44.6755 65.2854 44.8274 58.8309C46.8777 58.1474 48.852 57.464 50.9023 56.8565C51.7376 56.5528 52.6488 56.325 53.4841 56.0971C55.5344 55.4897 57.5847 54.9581 59.559 54.4266C60.6221 54.1228 63.8115 52.756 64.7986 53.1356C64.7986 53.1356 64.8746 53.1356 64.9505 53.2116C65.4061 54.1988 65.7858 55.2619 66.1655 56.325C67.5323 59.818 68.5954 63.463 69.4307 67.1838Z" fill="#6B7690"/>
    <path d="M31.6149 84.9522C31.463 85.0281 31.3111 85.104 31.1593 85.18C24.5528 79.7885 15.2127 76.5992 6.63187 76.6751C6.63187 75.9917 7.3153 75.688 8.75809 74.8527C12.3271 72.8783 15.8961 70.9799 19.617 69.2334C21.8191 68.1703 24.0972 67.1072 26.3753 66.12C31.463 63.8419 36.7026 61.7916 42.0181 59.8932C43.0053 59.5136 43.9165 59.2098 44.9037 58.9061C44.7518 65.2847 45.3593 71.7393 46.3465 78.1179C41.4106 80.396 36.4748 82.6741 31.6149 84.9522Z" fill="#6B7690"/>
    <path d="M48.0931 80.6253C48.7765 80.4735 49.5359 80.6253 50.0674 81.081C50.9027 81.8403 50.9787 83.2072 50.599 84.2703C50.2193 85.3334 49.4599 86.3206 48.3968 86.7002C47.3337 87.0799 45.9669 86.7762 45.4353 85.789C45.1316 85.2574 45.0556 84.65 45.1316 84.0425C45.2075 82.9034 45.8909 81.9162 46.7262 81.2328C47.1819 80.9291 47.5615 80.7013 48.0931 80.6253Z" stroke="#F7F7FA" stroke-width="0.794583" stroke-miterlimit="10"/>
    <path d="M71.0298 73.6389C71.7132 73.487 72.4726 73.6389 73.0041 74.0945C73.8394 74.8539 73.9154 76.2207 73.5357 77.2838C73.156 78.3469 72.3966 79.3341 71.3335 79.7138C70.2704 80.0935 68.9036 79.7897 68.372 78.8026C68.0683 78.271 67.9923 77.6635 68.0683 77.056C68.2202 75.5373 69.2833 74.1704 70.7261 73.7148C70.802 73.7148 70.8779 73.6389 71.0298 73.6389Z" stroke="#F7F7FA" stroke-width="0.794583" stroke-miterlimit="10"/>
    <path d="M70.7227 73.8663C70.7227 73.7904 70.7227 73.7904 70.7227 73.7144C70.343 71.5123 69.9634 69.3861 69.4318 67.1839C68.5965 63.463 67.5334 59.8181 66.2425 56.2491C65.8628 55.186 65.4831 54.1988 65.0275 53.1357C64.42 51.8448 63.8125 50.5539 62.9772 49.3389C61.5344 47.2127 59.636 45.3902 57.282 44.403C54.928 43.4159 52.1184 43.4159 49.9162 44.7068C49.7643 44.7827 49.6125 44.9346 49.4606 45.0105C47.9419 46.0736 46.9547 47.5924 46.2713 49.3389C45.5878 51.2373 45.2841 53.2116 45.1322 55.186C45.0563 56.401 44.9804 57.6159 44.9044 58.8309C44.7525 65.2096 45.36 71.6641 46.3472 78.0428C46.4991 79.1059 46.6509 80.169 46.8028 81.1562V81.2321" stroke="#F7F7FA" stroke-width="0.794583" stroke-miterlimit="10"/>
    <path d="M26.3746 66.1207C25.9949 60.7292 26.4505 55.2618 27.7415 50.0982C28.3489 47.5923 29.2602 45.0105 30.9308 42.9602C33.1329 40.2265 36.7779 38.6318 40.3469 38.9356C43.9159 39.1634 47.2571 41.2896 49.0036 44.327C49.1555 44.5548 49.2314 44.7827 49.3833 45.0105C51.1298 48.5035 50.9779 52.68 50.8261 56.5528" stroke="#F7F7FA" stroke-width="0.794583" stroke-miterlimit="10"/>
    <path d="M105.73 99.7231C105.73 99.7231 101.022 102.685 101.25 105.798C101.477 108.911 101.25 109.443 101.25 109.443L126.933 98.5827C126.933 98.5827 126.233 96.0782 121.525 95.9263C116.817 95.6985 105.73 99.7231 105.73 99.7231Z" fill="#D3DAEA"/>
    <path d="M120.841 77.0938C115.45 74.2082 108.615 74.1323 103.148 76.9419C100.49 74.5879 98.3639 72.6136 95.1746 71.0949C94.9467 73.1451 94.7189 75.1954 95.1746 77.1697C95.6302 79.1441 96.6933 81.1184 98.5917 82.0297C95.6302 83.9281 95.0986 88.5602 96.3136 91.9014C97.5286 95.1666 100.414 97.5966 103.528 99.2672C106.869 101.014 110.59 102.077 114.31 101.697C118.031 101.317 121.676 99.3431 123.651 96.1538C125.625 92.9645 125.549 88.4842 123.195 85.6746C126.232 83.1687 127.523 78.9922 127.903 75.0435C125.321 74.8157 122.208 75.0435 120.841 77.0938Z" fill="#F7F7FA"/>
    <path d="M102.009 85.9029C101.25 85.9789 100.719 87.1939 100.794 88.7126C100.87 90.2313 101.554 91.3703 102.313 91.3703C103.073 91.2944 103.604 90.0794 103.528 88.5607C103.452 87.042 102.769 85.827 102.009 85.9029Z" fill="#2F3D48"/>
    <path d="M104.745 88.029C104.593 88.4087 104.897 88.7884 105.201 89.0921C105.428 89.3199 105.808 89.4718 105.96 89.6996C106.719 89.5477 107.479 89.3199 108.086 88.8643C108.238 88.7124 108.39 88.5606 108.466 88.4087C108.542 88.1809 108.542 87.8771 108.314 87.9531C107.706 87.4215 106.795 87.4215 105.96 87.4975C105.732 87.4975 105.504 87.4975 105.276 87.6493C105.049 87.6493 104.821 87.8012 104.745 88.029Z" fill="#2F3D48"/>
    <path d="M112.413 85.3711C111.654 85.447 111.122 86.662 111.198 88.1807C111.274 89.6995 111.957 90.8385 112.717 90.8385C113.476 90.7626 114.008 89.5476 113.932 88.0289C113.856 86.5101 113.172 85.2952 112.413 85.3711Z" fill="#2F3D48"/>
    <path d="M105.957 89.3954C106.033 90.2307 106.109 91.1419 106.412 91.9772C106.716 92.8125 107.324 93.5719 108.083 93.8756C108.918 94.1794 109.905 94.0275 110.437 93.2681" stroke="#2F3D48" stroke-width="0.397291" stroke-miterlimit="10"/>
    <path d="M105.959 89.3954C105.959 90.2307 105.959 91.1419 105.807 91.9772C105.579 92.8125 105.124 93.6478 104.364 94.0275C103.605 94.4072 102.542 94.3312 102.01 93.6478" stroke="#2F3D48" stroke-width="0.397291" stroke-miterlimit="10"/>
    <path d="M193.858 84.334C183.775 88.8622 179.682 109.911 178.163 130.844C176.628 112.538 172.298 96.8977 161.646 101.525C144.326 109.163 151.973 150.411 157.047 170.774C159.774 169.626 162.502 168.479 165.363 167.141C194.057 153.745 204.964 127.653 208.083 102.006C206.069 89.5572 202.065 80.5532 193.858 84.334Z" fill="#2F3D48"/>
    <path d="M127.495 136.794C115.218 143.129 134.957 172.217 138.317 177.067C143.59 175.641 149.049 173.848 154.694 171.687C153.638 168.525 140.297 130.116 127.495 136.794Z" fill="#2F3D48"/>
    <path d="M195.101 83.7811C185.018 88.3092 180.925 109.358 179.406 130.291C177.871 111.985 173.541 96.3447 162.889 100.972C145.569 108.61 153.215 149.858 158.29 170.221C161.017 169.073 163.745 167.926 166.606 166.588C195.3 153.192 206.207 127.1 209.326 101.453C207.326 89.0854 203.322 80.0814 195.101 83.7811Z" fill="#8C93A3"/>
    <path d="M128.735 136.242C116.458 142.577 136.198 171.666 139.558 176.515C144.83 175.089 150.289 173.296 155.935 171.135C154.879 167.974 141.538 129.564 128.735 136.242Z" fill="#8C93A3"/>
    <path d="M133.095 146.773L148.599 173.174" stroke="#BCC0CA" stroke-width="1.54504" stroke-miterlimit="10" stroke-linecap="round"/>
    <path d="M163.749 112.118L170.625 163.29" stroke="#BCC0CA" stroke-width="1.54504" stroke-miterlimit="10" stroke-linecap="round"/>
    <path d="M198.542 92.4653L188.793 148.559" stroke="#BCC0CA" stroke-width="1.54504" stroke-miterlimit="10" stroke-linecap="round"/>
    <path d="M215.253 158.143C222.374 151.412 225.215 142.854 221.598 139.027C217.981 135.2 209.276 137.555 202.155 144.285C195.034 151.016 192.193 159.575 195.81 163.402C199.428 167.229 208.132 164.874 215.253 158.143Z" fill="#E5EAF6"/>
    <path d="M28.5704 32.4016C32.9852 28.2286 34.7461 22.9225 32.5036 20.55C30.2611 18.1776 24.8643 19.6372 20.4495 23.8101C16.0348 27.9831 14.2738 33.2892 16.5163 35.6616C18.7588 38.0341 24.1556 36.5745 28.5704 32.4016Z" fill="#E5EAF6"/>
</svg>
